<?xml version="1.0" encoding="utf-8"?>
<!-- Generator: Adobe Illustrator 18.1.1, SVG Export Plug-In . SVG Version: 6.00 Build 0)  -->
<!DOCTYPE svg PUBLIC "-//W3C//DTD SVG 1.1//EN" "http://www.w3.org/Graphics/SVG/1.1/DTD/svg11.dtd">
<svg version="1.1" id="Layer_1" xmlns="http://www.w3.org/2000/svg" xmlns:xlink="http://www.w3.org/1999/xlink" x="0px" y="0px"
	 viewBox="0 0 200 200" enable-background="new 0 0 200 200" xml:space="preserve">
<polygon fill="#5C5F62" points="53.3,1.3 1.3,1.3 1.3,53.3 0,53.3 0,0 53.3,0 "/>
<polygon fill="#5C5F62" points="200,53.3 198.7,53.3 198.7,1.3 146.7,1.3 146.7,0 200,0 "/>
<polygon fill="#5C5F62" points="53.3,200 0,200 0,146.7 1.3,146.7 1.3,198.7 53.3,198.7 "/>
<polygon fill="#5C5F62" points="200,200 146.7,200 146.7,198.7 198.7,198.7 198.7,146.7 200,146.7 "/>
<rect x="46" y="40" fill="#5C5F62" width="1.3" height="106.7"/>
<rect x="99.3" y="40" fill="#5C5F62" width="1.3" height="106.7"/>
<rect x="152" y="40" fill="#5C5F62" width="1.3" height="106.7"/>
</svg>
